<svg width="1000" height="1000" xmlns="http://www.w3.org/2000/svg"><path fill="none" d="M-1-1h582v402H-1z"/><g><path stroke="null" d="M550.195 497.937l300.01-298.387c14.178-14.103 14.252-36.993.148-51.17-14.177-14.252-36.993-14.252-51.17-.148l-300.086 298.46-297.426-298.386c-14.104-14.104-36.994-14.178-51.171-.074-14.177 14.103-14.177 37.067-.074 51.245l297.427 298.312-299.864 298.24c-14.177 14.103-14.25 36.993-.147 51.17 7.088 7.089 16.392 10.707 25.622 10.707s18.46-3.544 25.549-10.56L498.95 549.035l300.158 301.119c7.09 7.088 16.32 10.633 25.623 10.633 9.23 0 18.46-3.545 25.548-10.56 14.178-14.103 14.178-36.993.074-51.17L550.195 497.937z"/></g></svg>